{
    "frames": [
        {
            "pkt_pts_time": "0.000000 s"
        },
        {
            "pkt_pts_time": "0.135244 s"
        },
        {
            "pkt_pts_time": "0.219022 s"
        },
        {
            "pkt_pts_time": "0.303989 s"
        },
        {
            "pkt_pts_time": "0.930944 s"
        },
        {
            "pkt_pts_time": "0.963511 s"
        },
        {
            "pkt_pts_time": "0.996711 s"
        },
        {
            "pkt_pts_time": "1.031378 s"
        },
        {
            "pkt_pts_time": "1.071533 s"
        },
        {
            "pkt_pts_time": "1.105878 s"
        },
        {
            "pkt_pts_time": "1.132944 s"
        },
        {
            "pkt_pts_time": "1.166778 s"
        },
        {
            "pkt_pts_time": "1.200111 s"
        },
        {
            "pkt_pts_time": "1.233989 s"
        },
        {
            "pkt_pts_time": "1.274900 s"
        },
        {
            "pkt_pts_time": "1.309678 s"
        },
        {
            "pkt_pts_time": "1.343789 s"
        },
        {
            "pkt_pts_time": "1.372767 s"
        },
        {
            "pkt_pts_time": "1.405944 s"
        },
        {
            "pkt_pts_time": "1.443700 s"
        },
        {
            "pkt_pts_time": "1.471556 s"
        },
        {
            "pkt_pts_time": "1.505889 s"
        },
        {
            "pkt_pts_time": "1.538867 s"
        },
        {
            "pkt_pts_time": "1.573933 s"
        },
        {
            "pkt_pts_time": "1.613067 s"
        },
        {
            "pkt_pts_time": "1.640122 s"
        },
        {
            "pkt_pts_time": "1.675100 s"
        },
        {
            "pkt_pts_time": "1.710078 s"
        },
        {
            "pkt_pts_time": "1.749656 s"
        },
        {
            "pkt_pts_time": "1.781678 s"
        },
        {
            "pkt_pts_time": "1.815267 s"
        },
        {
            "pkt_pts_time": "1.843656 s"
        },
        {
            "pkt_pts_time": "1.877389 s"
        },
        {
            "pkt_pts_time": "1.912867 s"
        },
        {
            "pkt_pts_time": "1.947333 s"
        },
        {
            "pkt_pts_time": "1.985611 s"
        },
        {
            "pkt_pts_time": "2.018233 s"
        },
        {
            "pkt_pts_time": "2.047300 s"
        },
        {
            "pkt_pts_time": "2.081778 s"
        },
        {
            "pkt_pts_time": "2.115278 s"
        },
        {
            "pkt_pts_time": "2.155044 s"
        },
        {
            "pkt_pts_time": "2.188589 s"
        },
        {
            "pkt_pts_time": "2.224656 s"
        },
        {
            "pkt_pts_time": "2.257611 s"
        },
        {
            "pkt_pts_time": "2.283500 s"
        },
        {
            "pkt_pts_time": "2.319267 s"
        },
        {
            "pkt_pts_time": "2.351444 s"
        },
        {
            "pkt_pts_time": "2.390922 s"
        },
        {
            "pkt_pts_time": "2.425778 s"
        },
        {
            "pkt_pts_time": "2.453556 s"
        },
        {
            "pkt_pts_time": "2.486922 s"
        },
        {
            "pkt_pts_time": "2.526522 s"
        },
        {
            "pkt_pts_time": "2.554833 s"
        },
        {
            "pkt_pts_time": "2.596067 s"
        },
        {
            "pkt_pts_time": "2.628322 s"
        },
        {
            "pkt_pts_time": "2.656978 s"
        },
        {
            "pkt_pts_time": "2.689811 s"
        },
        {
            "pkt_pts_time": "2.723500 s"
        },
        {
            "pkt_pts_time": "2.757300 s"
        },
        {
            "pkt_pts_time": "2.797533 s"
        },
        {
            "pkt_pts_time": "2.832689 s"
        },
        {
            "pkt_pts_time": "2.860722 s"
        },
        {
            "pkt_pts_time": "2.893333 s"
        },
        {
            "pkt_pts_time": "2.930933 s"
        },
        {
            "pkt_pts_time": "2.968533 s"
        },
        {
            "pkt_pts_time": "3.000978 s"
        },
        {
            "pkt_pts_time": "3.031300 s"
        },
        {
            "pkt_pts_time": "3.062267 s"
        },
        {
            "pkt_pts_time": "3.096578 s"
        },
        {
            "pkt_pts_time": "3.130889 s"
        },
        {
            "pkt_pts_time": "3.170500 s"
        },
        {
            "pkt_pts_time": "3.197322 s"
        },
        {
            "pkt_pts_time": "3.235844 s"
        },
        {
            "pkt_pts_time": "3.265078 s"
        },
        {
            "pkt_pts_time": "3.300044 s"
        },
        {
            "pkt_pts_time": "3.343111 s"
        },
        {
            "pkt_pts_time": "3.373267 s"
        },
        {
            "pkt_pts_time": "3.402044 s"
        },
        {
            "pkt_pts_time": "3.434522 s"
        },
        {
            "pkt_pts_time": "3.468678 s"
        },
        {
            "pkt_pts_time": "3.503356 s"
        },
        {
            "pkt_pts_time": "3.548600 s"
        },
        {
            "pkt_pts_time": "3.579444 s"
        },
        {
            "pkt_pts_time": "3.602367 s"
        },
        {
            "pkt_pts_time": "3.636567 s"
        },
        {
            "pkt_pts_time": "3.669656 s"
        },
        {
            "pkt_pts_time": "3.702500 s"
        },
        {
            "pkt_pts_time": "3.742022 s"
        },
        {
            "pkt_pts_time": "3.768611 s"
        },
        {
            "pkt_pts_time": "3.802578 s"
        },
        {
            "pkt_pts_time": "3.835811 s"
        },
        {
            "pkt_pts_time": "3.876933 s"
        },
        {
            "pkt_pts_time": "3.903111 s"
        },
        {
            "pkt_pts_time": "3.936933 s"
        },
        {
            "pkt_pts_time": "3.968289 s"
        },
        {
            "pkt_pts_time": "4.002511 s"
        },
        {
            "pkt_pts_time": "4.042478 s"
        },
        {
            "pkt_pts_time": "4.077256 s"
        },
        {
            "pkt_pts_time": "4.103367 s"
        },
        {
            "pkt_pts_time": "4.136989 s"
        },
        {
            "pkt_pts_time": "4.168567 s"
        },
        {
            "pkt_pts_time": "4.202222 s"
        },
        {
            "pkt_pts_time": "4.241956 s"
        },
        {
            "pkt_pts_time": "4.275856 s"
        },
        {
            "pkt_pts_time": "4.304056 s"
        },
        {
            "pkt_pts_time": "4.339767 s"
        },
        {
            "pkt_pts_time": "4.368922 s"
        },
        {
            "pkt_pts_time": "4.401689 s"
        },
        {
            "pkt_pts_time": "4.440767 s"
        },
        {
            "pkt_pts_time": "4.475033 s"
        },
        {
            "pkt_pts_time": "4.501933 s"
        },
        {
            "pkt_pts_time": "4.538544 s"
        },
        {
            "pkt_pts_time": "4.569656 s"
        },
        {
            "pkt_pts_time": "4.607844 s"
        },
        {
            "pkt_pts_time": "4.641333 s"
        },
        {
            "pkt_pts_time": "4.674489 s"
        },
        {
            "pkt_pts_time": "4.702144 s"
        },
        {
            "pkt_pts_time": "4.734889 s"
        },
        {
            "pkt_pts_time": "4.768833 s"
        },
        {
            "pkt_pts_time": "4.802556 s"
        },
        {
            "pkt_pts_time": "4.840878 s"
        },
        {
            "pkt_pts_time": "4.874522 s"
        },
        {
            "pkt_pts_time": "4.903000 s"
        },
        {
            "pkt_pts_time": "4.934822 s"
        },
        {
            "pkt_pts_time": "4.975278 s"
        },
        {
            "pkt_pts_time": "5.007856 s"
        },
        {
            "pkt_pts_time": "5.040067 s"
        },
        {
            "pkt_pts_time": "5.068711 s"
        },
        {
            "pkt_pts_time": "5.103044 s"
        },
        {
            "pkt_pts_time": "5.135156 s"
        },
        {
            "pkt_pts_time": "5.175078 s"
        },
        {
            "pkt_pts_time": "5.203200 s"
        },
        {
            "pkt_pts_time": "5.246344 s"
        },
        {
            "pkt_pts_time": "5.269344 s"
        },
        {
            "pkt_pts_time": "5.301933 s"
        },
        {
            "pkt_pts_time": "5.335456 s"
        },
        {
            "pkt_pts_time": "5.374100 s"
        },
        {
            "pkt_pts_time": "5.406678 s"
        },
        {
            "pkt_pts_time": "5.434822 s"
        },
        {
            "pkt_pts_time": "5.468567 s"
        },
        {
            "pkt_pts_time": "5.501989 s"
        },
        {
            "pkt_pts_time": "5.535567 s"
        },
        {
            "pkt_pts_time": "5.576133 s"
        },
        {
            "pkt_pts_time": "5.601656 s"
        },
        {
            "pkt_pts_time": "5.635844 s"
        },
        {
            "pkt_pts_time": "5.670033 s"
        },
        {
            "pkt_pts_time": "5.701889 s"
        },
        {
            "pkt_pts_time": "5.740956 s"
        },
        {
            "pkt_pts_time": "5.775411 s"
        },
        {
            "pkt_pts_time": "5.800833 s"
        },
        {
            "pkt_pts_time": "5.834044 s"
        },
        {
            "pkt_pts_time": "5.869456 s"
        },
        {
            "pkt_pts_time": "5.900800 s"
        },
        {
            "pkt_pts_time": "5.939644 s"
        },
        {
            "pkt_pts_time": "5.970078 s"
        },
        {
            "pkt_pts_time": "6.001356 s"
        },
        {
            "pkt_pts_time": "6.034822 s"
        },
        {
            "pkt_pts_time": "6.070956 s"
        },
        {
            "pkt_pts_time": "6.102522 s"
        },
        {
            "pkt_pts_time": "6.140433 s"
        },
        {
            "pkt_pts_time": "6.176111 s"
        },
        {
            "pkt_pts_time": "6.202511 s"
        },
        {
            "pkt_pts_time": "6.235544 s"
        },
        {
            "pkt_pts_time": "6.276111 s"
        },
        {
            "pkt_pts_time": "6.306456 s"
        },
        {
            "pkt_pts_time": "6.334700 s"
        },
        {
            "pkt_pts_time": "6.370356 s"
        },
        {
            "pkt_pts_time": "6.406756 s"
        },
        {
            "pkt_pts_time": "6.435067 s"
        },
        {
            "pkt_pts_time": "6.476911 s"
        },
        {
            "pkt_pts_time": "6.500678 s"
        },
        {
            "pkt_pts_time": "6.534711 s"
        },
        {
            "pkt_pts_time": "6.570767 s"
        },
        {
            "pkt_pts_time": "6.602067 s"
        },
        {
            "pkt_pts_time": "6.640922 s"
        },
        {
            "pkt_pts_time": "6.677044 s"
        },
        {
            "pkt_pts_time": "6.702356 s"
        },
        {
            "pkt_pts_time": "6.734656 s"
        },
        {
            "pkt_pts_time": "6.769889 s"
        },
        {
            "pkt_pts_time": "6.801267 s"
        },
        {
            "pkt_pts_time": "6.834711 s"
        },
        {
            "pkt_pts_time": "6.870500 s"
        },
        {
            "pkt_pts_time": "6.908933 s"
        },
        {
            "pkt_pts_time": "6.935389 s"
        },
        {
            "pkt_pts_time": "6.976233 s"
        },
        {
            "pkt_pts_time": "7.001722 s"
        },
        {
            "pkt_pts_time": "7.033756 s"
        },
        {
            "pkt_pts_time": "7.069667 s"
        },
        {
            "pkt_pts_time": "7.109111 s"
        },
        {
            "pkt_pts_time": "7.143244 s"
        },
        {
            "pkt_pts_time": "7.171778 s"
        },
        {
            "pkt_pts_time": "7.200744 s"
        },
        {
            "pkt_pts_time": "7.234278 s"
        },
        {
            "pkt_pts_time": "7.273778 s"
        },
        {
            "pkt_pts_time": "7.306033 s"
        },
        {
            "pkt_pts_time": "7.333822 s"
        },
        {
            "pkt_pts_time": "7.368933 s"
        },
        {
            "pkt_pts_time": "7.406678 s"
        },
        {
            "pkt_pts_time": "7.445367 s"
        },
        {
            "pkt_pts_time": "7.469700 s"
        },
        {
            "pkt_pts_time": "7.501411 s"
        },
        {
            "pkt_pts_time": "7.533956 s"
        },
        {
            "pkt_pts_time": "7.573167 s"
        },
        {
            "pkt_pts_time": "7.609222 s"
        },
        {
            "pkt_pts_time": "7.634433 s"
        },
        {
            "pkt_pts_time": "7.668100 s"
        },
        {
            "pkt_pts_time": "7.706444 s"
        },
        {
            "pkt_pts_time": "7.739844 s"
        },
        {
            "pkt_pts_time": "7.774911 s"
        },
        {
            "pkt_pts_time": "7.807500 s"
        },
        {
            "pkt_pts_time": "7.834944 s"
        },
        {
            "pkt_pts_time": "7.875233 s"
        },
        {
            "pkt_pts_time": "7.905711 s"
        },
        {
            "pkt_pts_time": "7.936189 s"
        },
        {
            "pkt_pts_time": "7.969522 s"
        },
        {
            "pkt_pts_time": "8.006133 s"
        },
        {
            "pkt_pts_time": "8.039500 s"
        },
        {
            "pkt_pts_time": "8.075167 s"
        },
        {
            "pkt_pts_time": "8.101500 s"
        },
        {
            "pkt_pts_time": "8.135011 s"
        },
        {
            "pkt_pts_time": "8.166944 s"
        },
        {
            "pkt_pts_time": "8.207467 s"
        },
        {
            "pkt_pts_time": "8.239322 s"
        },
        {
            "pkt_pts_time": "8.268100 s"
        },
        {
            "pkt_pts_time": "8.302544 s"
        },
        {
            "pkt_pts_time": "8.334056 s"
        },
        {
            "pkt_pts_time": "8.368100 s"
        },
        {
            "pkt_pts_time": "8.401811 s"
        },
        {
            "pkt_pts_time": "8.441911 s"
        },
        {
            "pkt_pts_time": "8.473978 s"
        },
        {
            "pkt_pts_time": "8.500478 s"
        },
        {
            "pkt_pts_time": "8.534589 s"
        },
        {
            "pkt_pts_time": "8.567867 s"
        },
        {
            "pkt_pts_time": "8.600478 s"
        },
        {
            "pkt_pts_time": "8.634422 s"
        },
        {
            "pkt_pts_time": "8.675511 s"
        },
        {
            "pkt_pts_time": "8.706522 s"
        },
        {
            "pkt_pts_time": "8.734578 s"
        },
        {
            "pkt_pts_time": "8.767922 s"
        },
        {
            "pkt_pts_time": "8.806144 s"
        },
        {
            "pkt_pts_time": "8.842200 s"
        },
        {
            "pkt_pts_time": "8.872678 s"
        },
        {
            "pkt_pts_time": "8.900522 s"
        },
        {
            "pkt_pts_time": "8.934022 s"
        },
        {
            "pkt_pts_time": "8.967522 s"
        },
        {
            "pkt_pts_time": "9.003144 s"
        },
        {
            "pkt_pts_time": "9.039333 s"
        },
        {
            "pkt_pts_time": "9.068311 s"
        },
        {
            "pkt_pts_time": "9.105400 s"
        },
        {
            "pkt_pts_time": "9.134789 s"
        },
        {
            "pkt_pts_time": "9.172867 s"
        },
        {
            "pkt_pts_time": "9.216433 s"
        },
        {
            "pkt_pts_time": "9.234033 s"
        },
        {
            "pkt_pts_time": "9.268767 s"
        },
        {
            "pkt_pts_time": "9.307233 s"
        },
        {
            "pkt_pts_time": "9.333989 s"
        },
        {
            "pkt_pts_time": "9.367267 s"
        },
        {
            "pkt_pts_time": "9.407600 s"
        },
        {
            "pkt_pts_time": "9.433478 s"
        },
        {
            "pkt_pts_time": "9.467344 s"
        },
        {
            "pkt_pts_time": "9.500711 s"
        },
        {
            "pkt_pts_time": "9.535089 s"
        },
        {
            "pkt_pts_time": "9.572933 s"
        },
        {
            "pkt_pts_time": "9.606433 s"
        },
        {
            "pkt_pts_time": "9.633844 s"
        },
        {
            "pkt_pts_time": "9.666967 s"
        },
        {
            "pkt_pts_time": "9.700322 s"
        },
        {
            "pkt_pts_time": "9.735167 s"
        },
        {
            "pkt_pts_time": "9.772322 s"
        },
        {
            "pkt_pts_time": "9.806333 s"
        },
        {
            "pkt_pts_time": "9.834211 s"
        },
        {
            "pkt_pts_time": "9.867589 s"
        },
        {
            "pkt_pts_time": "9.902633 s"
        },
        {
            "pkt_pts_time": "9.933556 s"
        },
        {
            "pkt_pts_time": "9.972644 s"
        },
        {
            "pkt_pts_time": "10.006967 s"
        },
        {
            "pkt_pts_time": "10.042178 s"
        },
        {
            "pkt_pts_time": "10.066289 s"
        },
        {
            "pkt_pts_time": "10.102589 s"
        },
        {
            "pkt_pts_time": "10.136644 s"
        },
        {
            "pkt_pts_time": "10.172344 s"
        },
        {
            "pkt_pts_time": "10.210078 s"
        },
        {
            "pkt_pts_time": "10.234089 s"
        },
        {
            "pkt_pts_time": "10.266300 s"
        },
        {
            "pkt_pts_time": "10.299944 s"
        },
        {
            "pkt_pts_time": "10.333444 s"
        },
        {
            "pkt_pts_time": "10.368644 s"
        },
        {
            "pkt_pts_time": "10.408133 s"
        },
        {
            "pkt_pts_time": "10.434844 s"
        },
        {
            "pkt_pts_time": "10.466878 s"
        },
        {
            "pkt_pts_time": "10.507911 s"
        },
        {
            "pkt_pts_time": "10.534678 s"
        },
        {
            "pkt_pts_time": "10.575244 s"
        },
        {
            "pkt_pts_time": "10.599967 s"
        },
        {
            "pkt_pts_time": "10.633700 s"
        },
        {
            "pkt_pts_time": "10.666133 s"
        },
        {
            "pkt_pts_time": "10.705878 s"
        },
        {
            "pkt_pts_time": "10.739189 s"
        },
        {
            "pkt_pts_time": "10.766467 s"
        },
        {
            "pkt_pts_time": "10.800111 s"
        },
        {
            "pkt_pts_time": "10.833378 s"
        },
        {
            "pkt_pts_time": "10.866544 s"
        },
        {
            "pkt_pts_time": "10.905278 s"
        },
        {
            "pkt_pts_time": "10.939722 s"
        },
        {
            "pkt_pts_time": "10.972633 s"
        },
        {
            "pkt_pts_time": "11.003000 s"
        },
        {
            "pkt_pts_time": "11.033789 s"
        },
        {
            "pkt_pts_time": "11.066256 s"
        },
        {
            "pkt_pts_time": "11.106833 s"
        },
        {
            "pkt_pts_time": "11.139989 s"
        },
        {
            "pkt_pts_time": "11.166811 s"
        },
        {
            "pkt_pts_time": "11.200567 s"
        },
        {
            "pkt_pts_time": "11.233211 s"
        },
        {
            "pkt_pts_time": "11.266533 s"
        },
        {
            "pkt_pts_time": "11.307033 s"
        },
        {
            "pkt_pts_time": "11.337167 s"
        },
        {
            "pkt_pts_time": "11.366000 s"
        },
        {
            "pkt_pts_time": "11.399911 s"
        },
        {
            "pkt_pts_time": "11.434100 s"
        },
        {
            "pkt_pts_time": "11.471533 s"
        },
        {
            "pkt_pts_time": "11.505444 s"
        },
        {
            "pkt_pts_time": "11.533356 s"
        },
        {
            "pkt_pts_time": "11.566044 s"
        },
        {
            "pkt_pts_time": "11.599989 s"
        },
        {
            "pkt_pts_time": "11.640789 s"
        },
        {
            "pkt_pts_time": "11.667656 s"
        },
        {
            "pkt_pts_time": "11.701522 s"
        },
        {
            "pkt_pts_time": "11.733778 s"
        },
        {
            "pkt_pts_time": "11.775689 s"
        },
        {
            "pkt_pts_time": "11.805867 s"
        },
        {
            "pkt_pts_time": "11.833633 s"
        },
        {
            "pkt_pts_time": "11.866300 s"
        },
        {
            "pkt_pts_time": "11.902322 s"
        },
        {
            "pkt_pts_time": "11.938933 s"
        },
        {
            "pkt_pts_time": "11.966378 s"
        },
        {
            "pkt_pts_time": "11.999200 s"
        },
        {
            "pkt_pts_time": "12.034222 s"
        },
        {
            "pkt_pts_time": "12.066067 s"
        },
        {
            "pkt_pts_time": "12.105467 s"
        },
        {
            "pkt_pts_time": "12.139456 s"
        },
        {
            "pkt_pts_time": "12.165889 s"
        },
        {
            "pkt_pts_time": "12.198800 s"
        },
        {
            "pkt_pts_time": "12.232700 s"
        },
        {
            "pkt_pts_time": "12.266156 s"
        },
        {
            "pkt_pts_time": "12.300222 s"
        },
        {
            "pkt_pts_time": "12.333789 s"
        },
        {
            "pkt_pts_time": "12.373056 s"
        },
        {
            "pkt_pts_time": "12.401867 s"
        },
        {
            "pkt_pts_time": "12.432889 s"
        },
        {
            "pkt_pts_time": "12.466367 s"
        },
        {
            "pkt_pts_time": "12.505367 s"
        },
        {
            "pkt_pts_time": "12.538289 s"
        },
        {
            "pkt_pts_time": "12.566533 s"
        },
        {
            "pkt_pts_time": "12.599378 s"
        },
        {
            "pkt_pts_time": "12.633811 s"
        },
        {
            "pkt_pts_time": "12.672133 s"
        },
        {
            "pkt_pts_time": "12.715322 s"
        },
        {
            "pkt_pts_time": "12.738244 s"
        },
        {
            "pkt_pts_time": "12.766478 s"
        },
        {
            "pkt_pts_time": "12.801367 s"
        },
        {
            "pkt_pts_time": "12.833022 s"
        },
        {
            "pkt_pts_time": "12.871589 s"
        },
        {
            "pkt_pts_time": "12.904922 s"
        },
        {
            "pkt_pts_time": "12.932800 s"
        },
        {
            "pkt_pts_time": "12.966411 s"
        },
        {
            "pkt_pts_time": "12.998933 s"
        },
        {
            "pkt_pts_time": "13.033289 s"
        },
        {
            "pkt_pts_time": "13.072111 s"
        },
        {
            "pkt_pts_time": "13.111767 s"
        },
        {
            "pkt_pts_time": "13.138167 s"
        },
        {
            "pkt_pts_time": "13.166367 s"
        },
        {
            "pkt_pts_time": "13.199056 s"
        },
        {
            "pkt_pts_time": "13.233289 s"
        },
        {
            "pkt_pts_time": "13.267522 s"
        },
        {
            "pkt_pts_time": "13.305933 s"
        },
        {
            "pkt_pts_time": "13.333500 s"
        },
        {
            "pkt_pts_time": "13.365433 s"
        },
        {
            "pkt_pts_time": "13.399178 s"
        },
        {
            "pkt_pts_time": "13.434411 s"
        },
        {
            "pkt_pts_time": "13.474089 s"
        },
        {
            "pkt_pts_time": "13.505067 s"
        },
        {
            "pkt_pts_time": "13.533133 s"
        },
        {
            "pkt_pts_time": "13.566244 s"
        },
        {
            "pkt_pts_time": "13.599022 s"
        },
        {
            "pkt_pts_time": "13.633556 s"
        },
        {
            "pkt_pts_time": "13.673722 s"
        },
        {
            "pkt_pts_time": "13.709600 s"
        },
        {
            "pkt_pts_time": "13.738444 s"
        },
        {
            "pkt_pts_time": "13.765978 s"
        },
        {
            "pkt_pts_time": "13.799111 s"
        },
        {
            "pkt_pts_time": "13.836556 s"
        },
        {
            "pkt_pts_time": "13.871200 s"
        },
        {
            "pkt_pts_time": "13.899156 s"
        },
        {
            "pkt_pts_time": "13.941311 s"
        },
        {
            "pkt_pts_time": "13.966500 s"
        },
        {
            "pkt_pts_time": "13.998978 s"
        },
        {
            "pkt_pts_time": "14.034178 s"
        },
        {
            "pkt_pts_time": "14.072122 s"
        },
        {
            "pkt_pts_time": "14.105178 s"
        },
        {
            "pkt_pts_time": "14.134300 s"
        },
        {
            "pkt_pts_time": "14.165989 s"
        },
        {
            "pkt_pts_time": "14.198822 s"
        },
        {
            "pkt_pts_time": "14.234589 s"
        },
        {
            "pkt_pts_time": "14.272111 s"
        },
        {
            "pkt_pts_time": "14.304922 s"
        },
        {
            "pkt_pts_time": "14.334556 s"
        },
        {
            "pkt_pts_time": "14.366556 s"
        },
        {
            "pkt_pts_time": "14.399433 s"
        },
        {
            "pkt_pts_time": "14.441956 s"
        },
        {
            "pkt_pts_time": "14.471589 s"
        },
        {
            "pkt_pts_time": "14.498578 s"
        },
        {
            "pkt_pts_time": "14.533411 s"
        },
        {
            "pkt_pts_time": "14.566567 s"
        },
        {
            "pkt_pts_time": "14.599378 s"
        },
        {
            "pkt_pts_time": "14.639100 s"
        },
        {
            "pkt_pts_time": "14.671522 s"
        },
        {
            "pkt_pts_time": "14.698444 s"
        },
        {
            "pkt_pts_time": "14.734467 s"
        },
        {
            "pkt_pts_time": "14.766256 s"
        },
        {
            "pkt_pts_time": "14.798922 s"
        },
        {
            "pkt_pts_time": "14.837789 s"
        },
        {
            "pkt_pts_time": "14.877956 s"
        },
        {
            "pkt_pts_time": "14.898133 s"
        },
        {
            "pkt_pts_time": "14.933244 s"
        },
        {
            "pkt_pts_time": "14.967911 s"
        },
        {
            "pkt_pts_time": "15.005878 s"
        },
        {
            "pkt_pts_time": "15.035033 s"
        },
        {
            "pkt_pts_time": "15.065344 s"
        },
        {
            "pkt_pts_time": "15.098678 s"
        },
        {
            "pkt_pts_time": "15.133711 s"
        },
        {
            "pkt_pts_time": "15.165000 s"
        },
        {
            "pkt_pts_time": "15.204411 s"
        },
        {
            "pkt_pts_time": "15.232433 s"
        },
        {
            "pkt_pts_time": "15.265622 s"
        },
        {
            "pkt_pts_time": "15.298400 s"
        },
        {
            "pkt_pts_time": "15.335367 s"
        },
        {
            "pkt_pts_time": "15.373567 s"
        },
        {
            "pkt_pts_time": "15.404778 s"
        },
        {
            "pkt_pts_time": "15.435567 s"
        },
        {
            "pkt_pts_time": "15.465389 s"
        },
        {
            "pkt_pts_time": "15.501144 s"
        },
        {
            "pkt_pts_time": "15.534656 s"
        },
        {
            "pkt_pts_time": "15.572300 s"
        },
        {
            "pkt_pts_time": "15.606156 s"
        },
        {
            "pkt_pts_time": "15.632811 s"
        },
        {
            "pkt_pts_time": "15.666156 s"
        },
        {
            "pkt_pts_time": "15.699667 s"
        },
        {
            "pkt_pts_time": "15.732711 s"
        },
        {
            "pkt_pts_time": "15.771200 s"
        },
        {
            "pkt_pts_time": "15.805956 s"
        },
        {
            "pkt_pts_time": "15.838500 s"
        },
        {
            "pkt_pts_time": "15.865611 s"
        },
        {
            "pkt_pts_time": "15.904144 s"
        },
        {
            "pkt_pts_time": "15.937789 s"
        },
        {
            "pkt_pts_time": "15.964978 s"
        },
        {
            "pkt_pts_time": "15.998411 s"
        },
        {
            "pkt_pts_time": "16.033667 s"
        },
        {
            "pkt_pts_time": "16.065911 s"
        },
        {
            "pkt_pts_time": "16.101078 s"
        },
        {
            "pkt_pts_time": "16.131600 s"
        },
        {
            "pkt_pts_time": "16.173633 s"
        },
        {
            "pkt_pts_time": "16.204611 s"
        },
        {
            "pkt_pts_time": "16.232089 s"
        },
        {
            "pkt_pts_time": "16.265278 s"
        },
        {
            "pkt_pts_time": "16.298067 s"
        },
        {
            "pkt_pts_time": "16.339167 s"
        },
        {
            "pkt_pts_time": "16.364544 s"
        },
        {
            "pkt_pts_time": "16.398644 s"
        },
        {
            "pkt_pts_time": "16.437789 s"
        },
        {
            "pkt_pts_time": "16.472500 s"
        },
        {
            "pkt_pts_time": "16.497989 s"
        },
        {
            "pkt_pts_time": "16.531833 s"
        },
        {
            "pkt_pts_time": "16.565967 s"
        },
        {
            "pkt_pts_time": "16.604756 s"
        },
        {
            "pkt_pts_time": "16.638144 s"
        },
        {
            "pkt_pts_time": "16.665322 s"
        },
        {
            "pkt_pts_time": "16.697900 s"
        },
        {
            "pkt_pts_time": "16.732644 s"
        },
        {
            "pkt_pts_time": "16.765011 s"
        },
        {
            "pkt_pts_time": "16.804067 s"
        },
        {
            "pkt_pts_time": "16.837356 s"
        },
        {
            "pkt_pts_time": "16.866533 s"
        },
        {
            "pkt_pts_time": "16.901967 s"
        },
        {
            "pkt_pts_time": "16.932289 s"
        },
        {
            "pkt_pts_time": "16.964489 s"
        },
        {
            "pkt_pts_time": "17.004000 s"
        },
        {
            "pkt_pts_time": "17.037833 s"
        },
        {
            "pkt_pts_time": "17.064944 s"
        },
        {
            "pkt_pts_time": "17.097856 s"
        },
        {
            "pkt_pts_time": "17.138778 s"
        },
        {
            "pkt_pts_time": "17.166867 s"
        },
        {
            "pkt_pts_time": "17.197856 s"
        },
        {
            "pkt_pts_time": "17.231389 s"
        },
        {
            "pkt_pts_time": "17.267889 s"
        },
        {
            "pkt_pts_time": "17.305233 s"
        },
        {
            "pkt_pts_time": "17.336989 s"
        },
        {
            "pkt_pts_time": "17.367444 s"
        },
        {
            "pkt_pts_time": "17.398389 s"
        },
        {
            "pkt_pts_time": "17.437511 s"
        },
        {
            "pkt_pts_time": "17.468633 s"
        },
        {
            "pkt_pts_time": "17.498011 s"
        },
        {
            "pkt_pts_time": "17.537111 s"
        },
        {
            "pkt_pts_time": "17.566789 s"
        },
        {
            "pkt_pts_time": "17.598022 s"
        },
        {
            "pkt_pts_time": "17.638200 s"
        },
        {
            "pkt_pts_time": "17.673422 s"
        },
        {
            "pkt_pts_time": "17.697500 s"
        },
        {
            "pkt_pts_time": "17.731411 s"
        },
        {
            "pkt_pts_time": "17.766944 s"
        },
        {
            "pkt_pts_time": "17.804644 s"
        },
        {
            "pkt_pts_time": "17.836800 s"
        },
        {
            "pkt_pts_time": "17.865256 s"
        },
        {
            "pkt_pts_time": "17.901533 s"
        },
        {
            "pkt_pts_time": "17.932244 s"
        },
        {
            "pkt_pts_time": "17.965300 s"
        },
        {
            "pkt_pts_time": "18.003667 s"
        },
        {
            "pkt_pts_time": "18.038678 s"
        },
        {
            "pkt_pts_time": "18.073511 s"
        },
        {
            "pkt_pts_time": "18.103389 s"
        },
        {
            "pkt_pts_time": "18.138533 s"
        },
        {
            "pkt_pts_time": "18.166789 s"
        },
        {
            "pkt_pts_time": "18.208756 s"
        },
        {
            "pkt_pts_time": "18.243722 s"
        },
        {
            "pkt_pts_time": "18.266078 s"
        },
        {
            "pkt_pts_time": "18.297400 s"
        },
        {
            "pkt_pts_time": "18.331300 s"
        },
        {
            "pkt_pts_time": "18.366789 s"
        },
        {
            "pkt_pts_time": "18.397344 s"
        },
        {
            "pkt_pts_time": "18.437922 s"
        },
        {
            "pkt_pts_time": "18.472944 s"
        },
        {
            "pkt_pts_time": "18.504056 s"
        },
        {
            "pkt_pts_time": "18.537122 s"
        },
        {
            "pkt_pts_time": "18.573356 s"
        },
        {
            "pkt_pts_time": "18.605244 s"
        },
        {
            "pkt_pts_time": "18.631200 s"
        },
        {
            "pkt_pts_time": "18.665622 s"
        },
        {
            "pkt_pts_time": "18.697456 s"
        },
        {
            "pkt_pts_time": "18.737567 s"
        },
        {
            "pkt_pts_time": "18.771856 s"
        },
        {
            "pkt_pts_time": "18.799167 s"
        },
        {
            "pkt_pts_time": "18.831556 s"
        },
        {
            "pkt_pts_time": "18.873544 s"
        },
        {
            "pkt_pts_time": "18.905122 s"
        },
        {
            "pkt_pts_time": "18.938300 s"
        }
    ]
}
